<?xml version="1.0" encoding="utf-8"?>
<!-- Generator: Adobe Illustrator 21.0.0, SVG Export Plug-In . SVG Version: 6.00 Build 0)  -->
<!DOCTYPE svg PUBLIC "-//W3C//DTD SVG 1.1//EN" "http://www.w3.org/Graphics/SVG/1.1/DTD/svg11.dtd">
<svg version="1.1" id="Layer_1" xmlns="http://www.w3.org/2000/svg" xmlns:xlink="http://www.w3.org/1999/xlink" x="0px" y="0px"
	 viewBox="0 0 1026.4 83.2" style="enable-background:new 0 0 1026.4 83.2;" xml:space="preserve">
<style type="text/css">
	.st0{fill:#C12121;}
	.st1{fill:#FFFFFF;}
</style>
<g>
	<g>
		<g>
			<path class="st0" d="M111.6,0.1H39.1l10.4,18.1h4.2h0.6h48.6c1.3,0,4.3,0.6,4.3,4.7v37.6c0,4.1-3.1,4.7-4.3,4.7l-61.3,0.1V49.9
				h50.5V32.7l-51.6,0.1L21-0.1H0l23.6,41v42.3h17.5l0,0h71.6c8.1,0,12.8-7,12.8-21.1V18.3C125.5,6.2,120.8,0.1,111.6,0.1"/>
			<path class="st1" d="M371.3,49.9h-57.6v33.4h-18V16.9c0-11.4,5.9-17,17.3-17h61c10.3,0,15.3,6.1,15.3,18.2V31v28.3v24.1h-18
				L371.3,49.9z M371.2,31.9v-9c0.1-3.8-3.5-4.9-4.4-4.9h-48.7c-1.3,0-4.3,0.6-4.3,4.7v9.2H371.2z"/>
			<polygon class="st1" points="521.4,49.9 521.4,83.2 503.4,83.2 503.4,0 521.4,0 521.4,31.9 553,31.9 572,-0.1 592.9,-0.1 
				569.4,40.9 592.9,83.3 572.1,83.3 552.8,49.9 			"/>
			<polygon class="st1" points="938,83.4 938,-0.1 1026.4,-0.1 1026.4,18.1 955.9,18.1 955.9,32 1026.4,32 1026.4,50 955.9,50 
				955.9,65.2 1026.4,65.2 1026.4,83.4 			"/>
			<path class="st1" d="M897.1,65.1c1.2,0,4.3-0.6,4.3-4.7v-5.9c0-4.1-3.1-4.7-4.3-4.7h-57.4c-8.5,0-12.2-6.2-12.2-18.8V18.2
				c0-12.1,4.3-18.2,12.8-18.2h80.6l-10.7,18.2h-60.4c-1.3,0-4.3,0.6-4.3,4.7v4.5c0,4.1,3.1,4.7,4.3,4.7h55.9
				c9.4,0,14.1,5.5,14.1,18.7V62c0,14.2-4.7,21.3-14.1,21.3H824l11-18.2L897.1,65.1z"/>
			<path class="st1" d="M490.1,18.2h-63.8c-1.3,0-4.3,0.6-4.3,4.7v28.4v9.2c0,4.1,3.1,4.7,4.3,4.7h63.9v18.1h-72.6
				c-9.2,0-13.9-7-13.9-21.1V18.3c0-12.1,4.7-18.2,13.9-18.2h72.5V18.2L490.1,18.2z"/>
			<path class="st1" d="M276.3,16.5c0-12.1-4.9-16.6-13.9-16.5h-77.8v83.2h77.8c9,0,13.9-4,13.9-16.1V52.7c0-4.7-0.9-8.3-2.6-10.9
				c1.7-2.6,2.6-6.2,2.6-10.9L276.3,16.5L276.3,16.5z M257.9,60.3c0.1,3.9-3.5,4.9-4.4,4.9h-50.7V49.9h50.7c0.9,0,4.5,1,4.4,4.9
				V60.3z M257.9,27c0.1,3.9-3.5,4.9-4.4,4.9h-50.7V18.2h50.7c0.9,0,4.5,1,4.4,4.9V27z"/>
			<path class="st1" d="M695.5,16.5c0-12.1-4.9-16.6-13.9-16.5h-77.8v39v5.6v38.6h77.8c9,0,13.9-4,13.9-16.1V52.7
				c0-4.7-0.9-8.3-2.6-10.9c1.7-2.6,2.6-6.2,2.6-10.9V16.5z M677,60.3c0.1,3.9-3.5,4.9-4.4,4.9h-50.7V49.9h50.7c0.9,0,4.5,1,4.4,4.9
				V60.3z M677,27c0.1,3.9-3.5,4.9-4.4,4.9h-50.7V18.2h50.7c0.9,0,4.5,1,4.4,4.9V27z"/>
			<path class="st1" d="M790.5,49.9H733v33.4h-18V16.9c0-11.4,6-17,17.3-17h61c10.3,0,15.3,6.1,15.3,18.2V31v28.3v24.1h-18
				L790.5,49.9z M790.4,31.9v-9c0.1-3.8-3.5-4.9-4.4-4.9h-48.7c-1.3,0-4.3,0.6-4.3,4.7v9.2H790.4z"/>
		</g>
	</g>
</g>
</svg>
